<svg width="180" height="60" viewBox="0 0 180 60" fill="none" xmlns="http://www.w3.org/2000/svg">
<rect x="0.5" y="0.5" width="179" height="59" rx="9.5" fill="black" stroke="#A6A6A6"/>
<path d="M38.5568 31.1445C38.575 29.7646 38.9504 28.4117 39.6481 27.2115C40.3458 26.0114 41.3431 25.003 42.5472 24.2803C41.7823 23.2137 40.7731 22.336 39.5999 21.7168C38.4267 21.0976 37.1218 20.754 35.7888 20.7132C32.9453 20.4218 30.1887 22.3744 28.7396 22.3744C27.2626 22.3744 25.0316 20.7422 22.6292 20.7904C21.0753 20.8394 19.5609 21.2806 18.2335 22.0709C16.9062 22.8613 15.8111 23.9738 15.0551 25.3001C11.7803 30.8357 14.223 38.9712 17.3601 43.4458C18.9296 45.6368 20.764 48.0843 23.1642 47.9975C25.5129 47.9024 26.3902 46.5353 29.2253 46.5353C32.0341 46.5353 32.8571 47.9975 35.3061 47.9423C37.8264 47.9024 39.4143 45.7415 40.9288 43.5297C42.0565 41.9685 42.9243 40.243 43.5 38.4172C42.0358 37.8126 40.7862 36.8005 39.9072 35.5072C39.0281 34.2139 38.5585 32.6966 38.5568 31.1445Z" fill="white"/>
<path d="M33.9313 17.7707C35.3055 16.1601 35.9825 14.09 35.8186 12C33.7191 12.2153 31.7798 13.1949 30.3871 14.7437C29.7061 15.5003 29.1846 16.3805 28.8523 17.334C28.52 18.2875 28.3834 19.2956 28.4504 20.3007C29.5005 20.3113 30.5394 20.089 31.4888 19.6508C32.4381 19.2126 33.2733 18.5697 33.9313 17.7707Z" fill="white"/>
<path d="M155.949 20.0916C154.051 20.0916 152.871 18.9248 152.871 16.9604V16.0178C152.871 14.0403 154.163 12.8867 155.864 12.8867C157.611 12.8867 158.843 14.0996 158.843 16.0178V16.8352H154.321V17.178C154.321 18.1799 154.915 18.9182 155.943 18.9182C156.708 18.9182 157.235 18.5557 157.334 18.1206H158.764C158.678 18.9248 157.828 20.0916 155.949 20.0916ZM154.321 15.8794H157.413V15.7871C157.413 14.739 156.8 14.0403 155.87 14.0403C154.941 14.0403 154.321 14.739 154.321 15.7871V15.8794Z" fill="white"/>
<path d="M145.066 19.9724V10.5H146.523V14.2573H146.596C146.747 13.7629 147.314 12.8994 148.712 12.8994C150.07 12.8994 151.039 13.6838 151.039 15.2725V19.9724H149.582V15.7009C149.582 14.6396 148.995 14.1453 148.165 14.1453C147.116 14.1453 146.523 14.9692 146.523 16.103V19.9724H145.066Z" fill="white"/>
<path d="M140.229 13.0508V11.3105H141.66V13.0508H143.222V14.1978H141.66V17.8958C141.66 18.6538 141.943 18.8647 142.728 18.8647C142.926 18.8647 143.189 18.8516 143.301 18.8384V19.959C143.183 19.9788 142.695 20.0183 142.365 20.0183C140.671 20.0183 140.21 19.4119 140.21 18.0144V14.1978H139.148V13.0508H140.229Z" fill="white"/>
<path d="M128.613 19.9724V13.0049H130.05V14.2573H130.123C130.301 13.7102 130.808 12.8994 132.219 12.8994C133.623 12.8994 134.566 13.6772 134.566 15.2659V19.9724H133.102V15.6943C133.102 14.6331 132.549 14.1453 131.725 14.1453C130.644 14.1453 130.077 14.9758 130.077 16.103V19.9724H128.613Z" fill="white"/>
<path d="M123.636 12.8867C125.455 12.8867 126.728 14.0667 126.728 16.0244V16.9275C126.728 18.9512 125.455 20.0916 123.636 20.0916C121.79 20.0916 120.531 18.9644 120.531 16.9341V16.031C120.531 14.126 121.81 12.8867 123.636 12.8867ZM123.643 14.0667C122.601 14.0667 122.008 14.9368 122.008 16.1035V16.8813C122.008 18.0481 122.562 18.9116 123.643 18.9116C124.71 18.9116 125.258 18.0547 125.258 16.8813V16.1035C125.258 14.9368 124.684 14.0667 123.643 14.0667Z" fill="white"/>
<path d="M112.058 12.9126C113.04 12.9126 113.791 13.3477 114.062 14.053H114.134V10.5H115.597V19.9724H114.174V18.8584H114.101C113.89 19.5637 113.053 20.0647 112.038 20.0647C110.436 20.0647 109.395 18.9243 109.395 17.0852V15.8921C109.395 14.053 110.456 12.9126 112.058 12.9126ZM112.466 14.1123C111.491 14.1123 110.884 14.8374 110.884 16.103V16.8677C110.884 18.1399 111.497 18.865 112.499 18.865C113.488 18.865 114.134 18.1465 114.134 16.96V15.9053C114.134 14.8308 113.429 14.1123 112.466 14.1123Z" fill="white"/>
<path d="M104.152 20.0779C102.801 20.0779 101.871 19.2473 101.871 17.9487C101.871 16.7161 102.728 15.8855 104.337 15.8855H106.097V15.2329C106.097 14.4353 105.589 14.0596 104.785 14.0596C103.994 14.0596 103.638 14.3892 103.526 14.8506H102.135C102.221 13.6838 103.097 12.8994 104.831 12.8994C106.321 12.8994 107.553 13.519 107.553 15.2527V19.9724H106.163V19.0693H106.097C105.787 19.6033 105.18 20.0779 104.152 20.0779ZM104.607 18.9441C105.438 18.9441 106.097 18.3772 106.097 17.6191V16.8677H104.567C103.717 16.8677 103.341 17.2961 103.341 17.8762C103.341 18.6013 103.948 18.9441 104.607 18.9441Z" fill="white"/>
<path d="M97.2727 12.8867C99.092 12.8867 100.364 14.0667 100.364 16.0244V16.9275C100.364 18.9512 99.092 20.0916 97.2727 20.0916C95.427 20.0916 94.168 18.9644 94.168 16.9341V16.031C94.168 14.126 95.4468 12.8867 97.2727 12.8867ZM97.2793 14.0667C96.2378 14.0667 95.6445 14.9368 95.6445 16.1035V16.8813C95.6445 18.0481 96.1982 18.9116 97.2793 18.9116C98.3472 18.9116 98.8943 18.0547 98.8943 16.8813V16.1035C98.8943 14.9368 98.3208 14.0667 97.2793 14.0667Z" fill="white"/>
<path d="M90.7849 19.9724V10.5H92.2483V19.9724H90.7849Z" fill="white"/>
<path d="M82.6172 19.9724V13.0049H84.0542V14.2573H84.1267C84.3047 13.7102 84.8123 12.8994 86.2229 12.8994C87.627 12.8994 88.5696 13.6772 88.5696 15.2659V19.9724H87.1062V15.6943C87.1062 14.6331 86.5525 14.1453 85.7285 14.1453C84.6475 14.1453 84.0806 14.9758 84.0806 16.103V19.9724H82.6172Z" fill="white"/>
<path d="M81.1648 13.0049L79.3323 19.9724H77.8425L76.3857 14.8308H76.3462L74.9158 19.9724H73.4194L71.5078 13.0049H73.0833L74.2039 18.3179H74.2698L75.6738 13.0049H77.0515L78.4951 18.3179H78.561L79.7014 13.0049H81.1648Z" fill="white"/>
<path d="M67.3313 12.8867C69.1506 12.8867 70.4229 14.0667 70.4229 16.0244V16.9275C70.4229 18.9512 69.1506 20.0916 67.3313 20.0916C65.4856 20.0916 64.2266 18.9644 64.2266 16.9341V16.031C64.2266 14.126 65.5054 12.8867 67.3313 12.8867ZM67.3379 14.0667C66.2964 14.0667 65.7031 14.9368 65.7031 16.1035V16.8813C65.7031 18.0481 66.2568 18.9116 67.3379 18.9116C68.4058 18.9116 68.9529 18.0547 68.9529 16.8813V16.1035C68.9529 14.9368 68.3794 14.0667 67.3379 14.0667Z" fill="white"/>
<path d="M55.5 10.9746H58.6047C61.2876 10.9746 62.5928 12.5698 62.5928 15.4636C62.5928 18.3574 61.2744 19.9724 58.6047 19.9724H55.5V10.9746ZM56.9963 12.2336V18.7134H58.4399C60.2197 18.7134 61.0569 17.6389 61.0569 15.4834C61.0569 13.3147 60.2131 12.2336 58.4399 12.2336H56.9963Z" fill="white"/>
<path d="M159.846 44.7202C156.115 44.7202 153.742 42.2549 153.742 38.1284V36.7178C153.742 32.8286 156.062 30.3105 159.728 30.3105C163.445 30.3105 165.687 32.9209 165.687 36.8496V38.1812H156.629V38.5107C156.629 40.8574 157.895 42.4131 159.886 42.4131C161.375 42.4131 162.391 41.6748 162.747 40.4751H165.528C165.106 42.7295 163.287 44.7202 159.846 44.7202ZM156.629 36.1377H162.826V36.1113C162.826 34.1338 161.6 32.5781 159.741 32.5781C157.855 32.5781 156.629 34.1338 156.629 36.1113V36.1377Z" fill="white"/>
<path d="M145.394 44.4824V30.5474H148.321V32.3799H148.427C148.782 31.5098 149.824 30.3496 151.762 30.3496C152.144 30.3496 152.474 30.376 152.751 30.4287V33.0127C152.5 32.9468 151.986 32.9072 151.498 32.9072C149.152 32.9072 148.361 34.3574 148.361 36.2295V44.4824H145.394Z" fill="white"/>
<path d="M136.737 30.3105C140.745 30.3105 142.92 33.1318 142.92 36.9287V38.0493C142.92 41.978 140.758 44.7202 136.737 44.7202C132.716 44.7202 130.527 41.978 130.527 38.0493V36.9287C130.527 33.145 132.729 30.3105 136.737 30.3105ZM136.737 32.6572C134.562 32.6572 133.48 34.437 133.48 36.9683V38.0361C133.48 40.5278 134.548 42.3604 136.737 42.3604C138.925 42.3604 139.98 40.541 139.98 38.0361V36.9683C139.98 34.4238 138.912 32.6572 136.737 32.6572Z" fill="white"/>
<path d="M123.25 30.5483V27.1602H126.124V30.5483H128.839V32.895H126.124V40.3306C126.124 41.8467 126.69 42.2686 128.259 42.2686C128.51 42.2686 128.747 42.2686 128.918 42.2422V44.4834C128.681 44.5229 128.127 44.5757 127.534 44.5757C124.146 44.5757 123.21 43.3628 123.21 40.5679V32.895H121.285V30.5483H123.25Z" fill="white"/>
<path d="M105.996 39.4863H108.923C109.055 41.042 110.426 42.3735 112.97 42.3735C115.304 42.3735 116.688 41.2793 116.688 39.5786C116.688 38.2075 115.765 37.4692 113.84 37.0078L110.887 36.2695C108.567 35.729 106.484 34.3447 106.484 31.418C106.484 27.9771 109.49 26.0918 112.983 26.0918C116.477 26.0918 119.391 27.9771 119.457 31.3389H116.583C116.451 29.8096 115.277 28.5439 112.944 28.5439C110.887 28.5439 109.49 29.5195 109.49 31.1938C109.49 32.3672 110.307 33.2109 111.981 33.5933L114.921 34.3184C117.624 34.9775 119.681 36.2563 119.681 39.3149C119.681 42.8481 116.82 44.8389 112.746 44.8389C107.736 44.8389 106.062 41.9121 105.996 39.4863Z" fill="white"/>
<path d="M94.5103 44.6807C92.7041 44.6807 91.333 43.8237 90.5947 42.5449H90.4893V49.1104H87.5625V30.5479H90.4102V32.5913H90.5156C91.2803 31.2598 92.7041 30.3633 94.5762 30.3633C97.7007 30.3633 99.9287 32.7231 99.9287 36.8892V38.1284C99.9287 42.2681 97.7271 44.6807 94.5103 44.6807ZM93.8379 42.2681C95.6968 42.2681 96.9624 40.7783 96.9624 37.9702V36.9946C96.9624 34.292 95.7759 32.7495 93.7852 32.7495C91.7417 32.7495 90.4629 34.4106 90.4629 36.9814V37.9702C90.4629 40.6069 91.7549 42.2681 93.8379 42.2681Z" fill="white"/>
<path d="M79.6353 44.6807C77.8291 44.6807 76.458 43.8237 75.7197 42.5449H75.6143V49.1104H72.6875V30.5479H75.5352V32.5913H75.6406C76.4053 31.2598 77.8291 30.3633 79.7012 30.3633C82.8257 30.3633 85.0537 32.7231 85.0537 36.8892V38.1284C85.0537 42.2681 82.852 44.6807 79.6353 44.6807ZM78.9629 42.2681C80.8218 42.2681 82.0874 40.7783 82.0874 37.9702V36.9946C82.0874 34.292 80.9009 32.7495 78.9102 32.7495C76.8667 32.7495 75.5879 34.4106 75.5879 36.9814V37.9702C75.5879 40.6069 76.8799 42.2681 78.9629 42.2681Z" fill="white"/>
<path d="M58.5454 44.4829H55.5L61.6963 26.4873H65.0449L71.228 44.4829H68.064L66.4688 39.4995H60.1538L58.5454 44.4829ZM63.3838 29.5986H63.2651L60.8262 37.2056H65.7964L63.3838 29.5986Z" fill="white"/>
</svg>
