<svg width="41" height="25" viewBox="0 0 41 25" fill="none" xmlns="http://www.w3.org/2000/svg">
<path d="M0 19.3735L2.81947 15.946L5.1004 8.44888L13.9556 0.62838L23.7643 4.67026L32.0536 7.79281L35.8175 9.88999L38.3767 10.4859L39.7179 9.35423L39.0429 6.97978L36.7664 4.45316L40.7535 0L39.9553 2.98406L38.0208 4.4484L39.9097 6.54558L41 9.74228L38.7829 11.9225L35.6896 11.7841L36.3876 13.6641L36.4608 16.3849L38.0941 18.1956L39.5126 22.5654L39.3485 22.9904L39.3941 24.9952L36.9396 25L37.3779 23.4573L37.852 22.8707L37.0446 21.1058L35.6852 19.8955L31.903 18.824L29.2889 16.7128L29.1477 15.1329L28.235 12.0983L28.6733 15.0731L28.5088 16.4633L20.2284 16.1678L20.3334 14.8235L19.7722 16.2417L16.428 18.6897L18.381 20.5793L20.1145 18.69L22.1355 18.9717L21.159 20.4498L20.379 20.4036L19.161 22.2053L13.91 20.4914L13.3032 18.0339L14.69 15.4379L14.1197 13.2806L13.8644 10.6062L13.6135 13.2806L13.9556 15.0868L11.6105 14.8235L8.81401 12.4306L7.06221 12.5417L8.64989 12.8234L11.1317 15.3965L12.2538 17.3966L12.3817 18.3064L11.6288 18.3943L11.6744 19.4292L10.8944 20.3482L8.41724 19.3273L6.59661 19.5584L5.16423 18.5375L0.871195 20.5838L4.18803 16.6574L0 19.3735Z" fill="white"/>
</svg>
