<svg width="22" height="16" viewBox="0 0 22 16" fill="none" xmlns="http://www.w3.org/2000/svg">
<path fill-rule="evenodd" clip-rule="evenodd" d="M0 12.3595C0 11.7844 0 11.2093 0 10.6342C0.0121607 10.5476 0.0260745 10.4612 0.0361536 10.3743C0.110816 9.72921 0.1542 9.07878 0.264248 8.43979C0.701485 5.901 1.70556 3.58949 3.12672 1.45184C3.17613 1.3775 3.25622 1.30969 3.33745 1.27255C4.63684 0.678042 5.99423 0.268195 7.39797 0.006685C7.51185 -0.0145688 7.57562 0.0129301 7.62546 0.117008C7.7554 0.388104 7.90752 0.649503 8.02217 0.926624C8.08839 1.08679 8.17116 1.11177 8.33007 1.09589C8.93537 1.0353 9.54285 0.946399 10.1486 0.952425C11.0086 0.96108 11.8682 1.04029 12.7271 1.09956C12.8703 1.10942 12.944 1.08438 13.0036 0.943003C13.1202 0.66643 13.2665 0.40251 13.395 0.130703C13.4459 0.0229544 13.5069 -0.0164311 13.6344 0.00717814C15.0321 0.265291 16.3815 0.677276 17.6758 1.26554C17.7631 1.30525 17.8534 1.37553 17.9026 1.45594C18.274 2.062 18.661 2.66056 18.9952 3.287C20.026 5.21907 20.6771 7.27396 20.915 9.45483C20.9578 9.84758 20.9933 10.2411 21.0322 10.6342C21.0322 11.1956 21.0322 11.757 21.0322 12.3184C21.0055 12.6032 20.9884 12.8896 20.9466 13.1722C20.9326 13.2665 20.8773 13.3819 20.8032 13.4361C19.3584 14.4952 17.7852 15.3089 16.0867 15.8793C15.6085 16.04 15.5986 16.0443 15.3238 15.617C15.0293 15.1589 14.7546 14.688 14.4575 14.1999C14.7912 14.0538 15.0871 13.934 15.3741 13.7957C15.6641 13.6559 15.9452 13.4977 16.2384 13.3432C15.9307 12.9786 15.8748 12.9663 15.5085 13.1218C12.1724 14.538 8.83638 14.5196 5.50189 13.1161C5.15909 12.9718 5.04586 13.0015 4.77964 13.3604C5.36533 13.6437 5.9428 13.923 6.56622 14.2246C6.20946 14.7884 5.86008 15.3339 5.51909 15.8845C5.44218 16.0088 5.36484 16.0201 5.23222 15.9777C3.42603 15.3995 1.75459 14.5565 0.225411 13.435C0.151515 13.3809 0.0973951 13.2655 0.0829337 13.1712C0.041686 12.9027 0.0258552 12.6303 0 12.3595ZM15.9052 8.75006C15.8991 8.66953 15.8991 8.54524 15.8778 8.42478C15.853 8.284 15.8197 8.14295 15.7729 8.00814C15.312 6.68449 13.7754 6.25832 12.7998 7.18133C11.9104 8.02282 11.9043 9.55918 12.7872 10.4092C13.5119 11.1067 14.5826 11.094 15.2869 10.3745C15.7159 9.93622 15.8991 9.39841 15.9052 8.75006ZM8.9495 8.78856C8.89571 8.52919 8.86843 8.26067 8.78363 8.01181C8.3401 6.71051 6.84526 6.26818 5.85997 7.13756C4.91505 7.97133 4.89807 9.58142 5.82513 10.4345C6.55653 11.1075 7.59545 11.0846 8.29419 10.3754C8.72464 9.93846 8.90716 9.40032 8.9495 8.78856Z" fill="white"/>
</svg>
