<svg width="34" height="34" viewBox="0 0 34 34" fill="none" xmlns="http://www.w3.org/2000/svg">
<path fill-rule="evenodd" clip-rule="evenodd" d="M17 0.5C7.8873 0.5 0.5 7.8873 0.5 17C0.5 26.1127 7.8873 33.5 17 33.5C26.1127 33.5 33.5 26.1127 33.5 17C33.5 7.8873 26.1127 0.5 17 0.5ZM13.3996 11.1741C13.25 11.374 13.25 11.7319 13.25 12.4479V21.5519C13.25 22.2678 13.25 22.6258 13.3996 22.8256C13.53 22.9997 13.7296 23.1087 13.9466 23.1242C14.1956 23.142 14.4967 22.9484 15.0989 22.5613L22.1798 18.0093C22.7024 17.6733 22.9637 17.5054 23.0539 17.2918C23.1328 17.1052 23.1328 16.8946 23.0539 16.7079C22.9637 16.4944 22.7024 16.3264 22.1798 15.9904L15.0989 11.4384C14.4967 11.0513 14.1956 10.8577 13.9466 10.8755C13.7296 10.891 13.53 11 13.3996 11.1741Z" fill="white"/>
</svg>
