<svg width="180" height="60" viewBox="0 0 180 60" fill="none" xmlns="http://www.w3.org/2000/svg">
<rect x="0.5" y="0.5" width="179" height="59" rx="9.5" fill="black" stroke="#A6A6A6"/>
<path d="M28.2095 27.6925L13.6367 43.5089C13.6381 43.5117 13.6381 43.5159 13.6395 43.5187C14.087 45.2361 15.62 46.5 17.4404 46.5C18.1686 46.5 18.8516 46.2984 19.4374 45.9457L19.4839 45.9177L35.8867 36.239L28.2095 27.6925Z" fill="#EA4335"/>
<path d="M42.9449 24.9993L42.9312 24.9895L35.8494 20.7918L27.8711 28.052L35.8781 36.2373L42.9216 32.0817C44.1562 31.3986 44.9952 30.0675 44.9952 28.5335C44.9952 27.0078 44.1685 25.6837 42.9449 24.9993Z" fill="#FBBC04"/>
<path d="M13.6341 13.4899C13.5465 13.8202 13.5 14.1673 13.5 14.5256V42.4744C13.5 42.8327 13.5465 43.1799 13.6355 43.5088L28.7079 28.0969L13.6341 13.4899Z" fill="#4285F4"/>
<path d="M28.3177 28.5L35.8594 20.7892L19.4757 11.0754C18.8803 10.7101 18.185 10.5001 17.4418 10.5001C15.6214 10.5001 14.0857 11.7668 13.6381 13.4856C13.6381 13.487 13.6367 13.4884 13.6367 13.4898L28.3177 28.5Z" fill="#34A853"/>
<path d="M115.732 21.4802H114.352V10.7402H116.032L121.252 19.0952H121.312L121.252 17.0252V10.7402H122.632V21.4802H121.192L115.732 12.7202H115.672L115.732 14.7902V21.4802Z" fill="white"/>
<path d="M112.727 16.11C112.727 17.7 112.198 19.03 111.138 20.1C110.068 21.18 108.757 21.72 107.207 21.72C105.647 21.72 104.337 21.18 103.277 20.1C102.217 19.03 101.688 17.7 101.688 16.11C101.688 14.52 102.217 13.19 103.277 12.12C104.337 11.04 105.647 10.5 107.207 10.5C108.767 10.5 110.078 11.045 111.138 12.135C112.198 13.205 112.727 14.53 112.727 16.11ZM103.098 16.11C103.098 17.35 103.487 18.375 104.267 19.185C105.057 19.995 106.037 20.4 107.207 20.4C108.377 20.4 109.352 19.995 110.132 19.185C110.922 18.385 111.318 17.36 111.318 16.11C111.318 14.86 110.922 13.835 110.132 13.035C109.352 12.225 108.377 11.82 107.207 11.82C106.037 11.82 105.057 12.225 104.267 13.035C103.487 13.845 103.098 14.87 103.098 16.11Z" fill="white"/>
<path d="M94.7667 12.0602V21.4802H93.3867V12.0602H90.3867V10.7402H97.7667V12.0602H94.7667Z" fill="white"/>
<path d="M88.9425 21.4802H87.5625V10.7402H88.9425V21.4802Z" fill="white"/>
<path d="M79.8253 12.0602V21.4802H78.4453V12.0602H75.4453V10.7402H82.8253V12.0602H79.8253Z" fill="white"/>
<path d="M74.3012 10.7402V12.0602H69.4113V15.4652H73.8212V16.7552H69.4113V20.1602H74.3012V21.4802H68.0312V10.7402H74.3012Z" fill="white"/>
<path d="M66.36 16.545C66.36 18.045 65.915 19.24 65.025 20.13C64.025 21.19 62.71 21.72 61.08 21.72C59.52 21.72 58.2 21.18 57.12 20.1C56.04 19.02 55.5 17.69 55.5 16.11C55.5 14.53 56.04 13.2 57.12 12.12C58.2 11.04 59.52 10.5 61.08 10.5C61.87 10.5 62.615 10.64 63.315 10.92C64.015 11.2 64.59 11.595 65.04 12.105L64.05 13.095C63.72 12.695 63.29 12.385 62.76 12.165C62.24 11.935 61.68 11.82 61.08 11.82C59.91 11.82 58.92 12.225 58.11 13.035C57.31 13.855 56.91 14.88 56.91 16.11C56.91 17.34 57.31 18.365 58.11 19.185C58.92 19.995 59.91 20.4 61.08 20.4C62.15 20.4 63.04 20.1 63.75 19.5C64.46 18.9 64.87 18.075 64.98 17.025H61.08V15.735H66.285C66.335 16.015 66.36 16.285 66.36 16.545Z" fill="white"/>
<path d="M141.777 43.3342H144.22V26.8169H141.777V43.3342ZM163.783 32.7666L160.982 39.928H160.899L157.992 32.7666H155.36L159.719 42.7753L157.235 48.3432H159.782L166.5 32.7666H163.783ZM149.928 41.458C149.126 41.458 148.011 41.055 148.011 40.0548C148.011 38.7811 149.4 38.2922 150.601 38.2922C151.674 38.2922 152.181 38.5261 152.833 38.8445C152.643 40.3745 151.338 41.458 149.928 41.458ZM150.222 32.4059C148.453 32.4059 146.62 33.1921 145.864 34.9349L148.032 35.8479C148.495 34.9349 149.358 34.6362 150.264 34.6362C151.528 34.6362 152.812 35.4013 152.833 36.7622V36.9313C152.391 36.6763 151.444 36.2945 150.285 36.2945C147.948 36.2945 145.568 37.5906 145.568 40.0125C145.568 42.223 147.485 43.6473 149.632 43.6473C151.275 43.6473 152.181 42.9035 152.749 42.0314H152.833V43.3065H155.191V36.9736C155.191 34.0417 153.023 32.4059 150.222 32.4059ZM135.123 34.7776H131.648V29.116H135.123C136.95 29.116 137.987 30.642 137.987 31.9461C137.987 33.2264 136.95 34.7776 135.123 34.7776ZM135.06 26.8169H129.206V43.3342H131.648V37.0766H135.06C137.768 37.0766 140.43 35.0974 140.43 31.9461C140.43 28.7949 137.768 26.8169 135.06 26.8169ZM103.137 41.4606C101.45 41.4606 100.037 40.035 100.037 38.0769C100.037 36.0976 101.45 34.6495 103.137 34.6495C104.804 34.6495 106.111 36.0976 106.111 38.0769C106.111 40.035 104.804 41.4606 103.137 41.4606ZM105.943 33.6915H105.858C105.31 33.0322 104.256 32.4363 102.927 32.4363C100.142 32.4363 97.5898 34.9045 97.5898 38.0769C97.5898 41.2268 100.142 43.6751 102.927 43.6751C104.256 43.6751 105.31 43.0792 105.858 42.3974H105.943V43.2074C105.943 45.3571 104.804 46.5066 102.969 46.5066C101.471 46.5066 100.542 45.4205 100.163 44.5049L98.0324 45.3994C98.6438 46.8898 100.269 48.7197 102.969 48.7197C105.837 48.7197 108.263 47.0166 108.263 42.8665V32.7759H105.943V33.6915ZM109.951 43.3342H112.398V26.8156H109.951V43.3342ZM116.004 37.8853C115.941 35.7144 117.671 34.6072 118.915 34.6072C119.886 34.6072 120.709 35.0961 120.982 35.799L116.004 37.8853ZM123.598 36.0117C123.135 34.7565 121.721 32.4363 118.831 32.4363C115.962 32.4363 113.579 34.7129 113.579 38.0557C113.579 41.2056 115.941 43.6751 119.105 43.6751C121.658 43.6751 123.135 42.1001 123.746 41.1845L121.848 39.9068C121.215 40.8436 120.35 41.4606 119.105 41.4606C117.861 41.4606 116.974 40.8859 116.405 39.7588L123.851 36.6499L123.598 36.0117ZM64.2751 34.1606V36.5442H69.9275C69.7586 37.8853 69.3161 38.8643 68.6418 39.5448C67.8182 40.3759 66.5311 41.2915 64.2751 41.2915C60.7936 41.2915 58.0728 38.46 58.0728 34.9481C58.0728 31.4348 60.7936 28.6046 64.2751 28.6046C66.1527 28.6046 67.5236 29.3498 68.5357 30.3078L70.2025 28.6258C68.7884 27.2635 66.9121 26.2197 64.2751 26.2197C59.5079 26.2197 55.5 30.1373 55.5 34.9481C55.5 39.7588 59.5079 43.6751 64.2751 43.6751C66.848 43.6751 68.7884 42.8229 70.3072 41.2268C71.8693 39.6518 72.3537 37.4387 72.3537 35.6497C72.3537 35.0961 72.3118 34.586 72.2267 34.1606H64.2751ZM78.7812 41.4606C77.0935 41.4606 75.6375 40.0561 75.6375 38.0557C75.6375 36.0328 77.0935 34.6495 78.7812 34.6495C80.4677 34.6495 81.9236 36.0328 81.9236 38.0557C81.9236 40.0561 80.4677 41.4606 78.7812 41.4606ZM78.7812 32.4363C75.7004 32.4363 73.1904 34.7988 73.1904 38.0557C73.1904 41.2915 75.7004 43.6751 78.7812 43.6751C81.8608 43.6751 84.3708 41.2915 84.3708 38.0557C84.3708 34.7988 81.8608 32.4363 78.7812 32.4363ZM90.9751 41.4606C89.2873 41.4606 87.8314 40.0561 87.8314 38.0557C87.8314 36.0328 89.2873 34.6495 90.9751 34.6495C92.6628 34.6495 94.1175 36.0328 94.1175 38.0557C94.1175 40.0561 92.6628 41.4606 90.9751 41.4606ZM90.9751 32.4363C87.8955 32.4363 85.3855 34.7988 85.3855 38.0557C85.3855 41.2915 87.8955 43.6751 90.9751 43.6751C94.0546 43.6751 96.5646 41.2915 96.5646 38.0557C96.5646 34.7988 94.0546 32.4363 90.9751 32.4363Z" fill="white"/>
</svg>
