<svg width="34" height="35" viewBox="0 0 34 35" fill="none" xmlns="http://www.w3.org/2000/svg">
<path d="M28.3327 28.463V18.5463M16.9993 28.463V14.2963M5.66602 28.463L5.66602 22.7963M18.9921 7.25194L26.3141 9.99767M15.2976 7.78094L7.36634 13.7294M29.8353 9.25204C30.6651 10.0819 30.6651 11.4274 29.8353 12.2572C29.0054 13.0871 27.6599 13.0871 26.8301 12.2572C26.0002 11.4274 26.0002 10.0819 26.8301 9.25204C27.6599 8.42217 29.0054 8.42217 29.8353 9.25204ZM7.16862 13.502C7.99848 14.3319 7.99848 15.6774 7.16862 16.5072C6.33875 17.3371 4.99328 17.3371 4.16341 16.5072C3.33355 15.6774 3.33355 14.3319 4.16341 13.502C4.99328 12.6722 6.33875 12.6722 7.16862 13.502ZM18.502 5.00204C19.3318 5.8319 19.3318 7.17738 18.502 8.00724C17.6721 8.8371 16.3266 8.8371 15.4967 8.00724C14.6669 7.17738 14.6669 5.8319 15.4967 5.00204C16.3266 4.17217 17.6721 4.17217 18.502 5.00204Z" stroke="url(#paint0_linear_4042_494)" stroke-width="2" stroke-linecap="round" stroke-linejoin="round"/>
<defs>
<linearGradient id="paint0_linear_4042_494" x1="35.3027" y1="25.573" x2="2.24348" y2="22.2163" gradientUnits="userSpaceOnUse">
<stop stop-color="#14E893"/>
<stop offset="1" stop-color="#5131AD"/>
</linearGradient>
</defs>
</svg>
