<svg width="34" height="35" viewBox="0 0 34 35" fill="none" xmlns="http://www.w3.org/2000/svg">
<path d="M9.91732 13.588L2.83398 17.1297L16.4938 23.9596C16.6796 24.0525 16.7726 24.099 16.87 24.1173C16.9564 24.1335 17.0449 24.1335 17.1313 24.1173C17.2287 24.099 17.3217 24.0525 17.5075 23.9596L31.1673 17.1297L24.084 13.588M9.91732 20.6714L2.83398 24.213L16.4938 31.0429C16.6796 31.1359 16.7726 31.1823 16.87 31.2006C16.9564 31.2168 17.0449 31.2168 17.1313 31.2006C17.2287 31.1823 17.3217 31.1359 17.5075 31.0429L31.1673 24.213L24.084 20.6714M2.83398 10.0464L16.4938 3.21644C16.6796 3.12352 16.7726 3.07706 16.87 3.05878C16.9564 3.04258 17.0449 3.04258 17.1313 3.05878C17.2287 3.07706 17.3217 3.12352 17.5075 3.21644L31.1673 10.0464L17.5075 16.8763C17.3217 16.9692 17.2287 17.0157 17.1313 17.0339C17.0449 17.0501 16.9564 17.0501 16.87 17.0339C16.7726 17.0157 16.6796 16.9692 16.4938 16.8763L2.83398 10.0464Z" stroke="url(#paint0_linear_4042_467)" stroke-width="2" stroke-linecap="round" stroke-linejoin="round"/>
<defs>
<linearGradient id="paint0_linear_4042_467" x1="36.2673" y1="27.8328" x2="1.40059" y2="24.6465" gradientUnits="userSpaceOnUse">
<stop stop-color="#14E893"/>
<stop offset="1" stop-color="#5131AD"/>
</linearGradient>
</defs>
</svg>
