<svg width="34" height="35" viewBox="0 0 34 35" fill="none" xmlns="http://www.w3.org/2000/svg">
<path d="M16.9988 12.8796V18.5463M16.9988 24.2129H17.013M15.0372 5.64287L3.38528 25.7689C2.73899 26.8852 2.41585 27.4434 2.46361 27.9015C2.50527 28.3011 2.71461 28.6642 3.03953 28.9004C3.41206 29.1713 4.05701 29.1713 5.34692 29.1713H28.6508C29.9407 29.1713 30.5856 29.1713 30.9581 28.9004C31.2831 28.6642 31.4924 28.3011 31.5341 27.9015C31.5818 27.4434 31.2587 26.8852 30.6124 25.7689L18.9605 5.64287C18.3165 4.53056 17.9945 3.9744 17.5744 3.78761C17.208 3.62467 16.7897 3.62467 16.4232 3.78761C16.0032 3.9744 15.6812 4.53056 15.0372 5.64287Z" stroke="url(#paint0_linear_4042_485)" stroke-width="2" stroke-linecap="round" stroke-linejoin="round"/>
<defs>
<linearGradient id="paint0_linear_4042_485" x1="36.773" y1="26.1106" x2="1.07197" y2="22.4128" gradientUnits="userSpaceOnUse">
<stop stop-color="#14E893"/>
<stop offset="1" stop-color="#5131AD"/>
</linearGradient>
</defs>
</svg>
