<svg width="20" height="20" viewBox="0 0 20 20" fill="none" xmlns="http://www.w3.org/2000/svg">
<path d="M7.50065 9.58339L9.16732 11.2501L12.9173 7.50006M16.6673 10.0001C16.6673 14.0904 12.2057 17.0654 10.5823 18.0125C10.3978 18.1201 10.3056 18.1739 10.1754 18.2018C10.0744 18.2235 9.92695 18.2235 9.82592 18.2018C9.69573 18.1739 9.60349 18.1201 9.41899 18.0125C7.79562 17.0654 3.33398 14.0904 3.33398 10.0001V6.01472C3.33398 5.34846 3.33398 5.01533 3.44295 4.72898C3.53921 4.47601 3.69564 4.25029 3.8987 4.07133C4.12856 3.86875 4.44048 3.75178 5.06432 3.51785L9.53249 1.84228C9.70573 1.77732 9.79236 1.74483 9.88147 1.73196C9.96051 1.72053 10.0408 1.72053 10.1198 1.73196C10.2089 1.74483 10.2956 1.77732 10.4688 1.84228L14.937 3.51785C15.5608 3.75178 15.8727 3.86875 16.1026 4.07133C16.3057 4.25029 16.4621 4.47601 16.5584 4.72898C16.6673 5.01533 16.6673 5.34846 16.6673 6.01472V10.0001Z" stroke="#14E893" stroke-width="1.5" stroke-linecap="round" stroke-linejoin="round"/>
</svg>
