<svg width="1579" height="296" viewBox="0 0 1579 296" fill="none" xmlns="http://www.w3.org/2000/svg">
<path opacity="0.1" d="M91.2 42.4H1.41561e-07V-9.53674e-06H233.2V42.4H142V290H91.2V42.4ZM242.019 196C243.619 214.933 250.019 229.6 261.219 240C272.685 250.4 285.752 255.6 300.419 255.6C327.085 255.6 344.685 245.6 353.219 225.6H400.019C394.419 244.8 383.219 261.2 366.419 274.8C349.619 288.4 328.285 295.2 302.419 295.2C269.085 295.2 242.552 284.267 222.819 262.4C203.352 240.267 193.619 213.067 193.619 180.8C193.619 148.533 203.485 122 223.219 101.2C243.219 80.4 268.552 70 299.219 70C332.019 70 357.885 81.8667 376.819 105.6C396.019 129.333 404.552 159.467 402.419 196H242.019ZM242.019 161.2H354.019C353.485 144.933 347.885 131.867 337.219 122C326.552 112.133 313.885 107.2 299.219 107.2C285.885 107.2 273.485 111.6 262.019 120.4C250.552 128.933 243.885 142.533 242.019 161.2ZM615.156 148.4H568.756C566.623 136.933 560.89 127.6 551.556 120.4C542.49 113.2 531.556 109.6 518.756 109.6C502.756 109.6 489.29 115.733 478.356 128C467.69 140.267 462.356 158.4 462.356 182.4C462.356 206.4 467.69 224.667 478.356 237.2C489.023 249.467 502.09 255.6 517.556 255.6C530.356 255.6 541.556 252.4 551.156 246C561.023 239.6 567.423 229.733 570.356 216.4H616.756C612.223 240.667 600.356 259.867 581.156 274C562.223 288.133 540.756 295.2 516.756 295.2C485.823 295.2 460.756 284.667 441.556 263.6C422.623 242.267 413.156 215.333 413.156 182.8C413.156 150.267 422.89 123.333 442.356 102C461.823 80.6667 487.29 70 518.756 70C542.756 70 563.823 77.2 581.956 91.6C600.09 106 611.156 124.933 615.156 148.4ZM685.338 104.8C698.138 81.6 719.871 70 750.538 70C799.338 70 823.738 98.2667 823.738 154.8V290H776.138V166.4C776.138 159.733 775.871 154 775.338 149.2C774.804 144.133 773.738 138.933 772.138 133.6C770.538 128.267 768.271 124 765.338 120.8C762.671 117.333 758.671 114.533 753.338 112.4C748.271 110 742.271 108.8 735.338 108.8C702.004 108.8 685.338 131.067 685.338 175.6V290H637.738V-9.53674e-06H685.338V104.8ZM923.684 42.4H832.484V-9.53674e-06H1065.68V42.4H974.484V290H923.684V42.4ZM1165.92 123.2C1157.92 122.4 1150.32 122 1143.12 122C1127.12 122 1115.25 126.133 1107.52 134.4C1099.78 142.4 1095.92 156.667 1095.92 177.2V290H1048.32V74.8H1095.12V113.2C1107.38 87.8667 1126.85 74.9333 1153.52 74.4C1156.98 74.4 1161.12 74.6667 1165.92 75.2V123.2ZM1209.28 196C1210.88 214.933 1217.28 229.6 1228.48 240C1239.95 250.4 1253.02 255.6 1267.68 255.6C1294.35 255.6 1311.95 245.6 1320.48 225.6H1367.28C1361.68 244.8 1350.48 261.2 1333.68 274.8C1316.88 288.4 1295.55 295.2 1269.68 295.2C1236.35 295.2 1209.82 284.267 1190.08 262.4C1170.62 240.267 1160.88 213.067 1160.88 180.8C1160.88 148.533 1170.75 122 1190.48 101.2C1210.48 80.4 1235.82 70 1266.48 70C1299.28 70 1325.15 81.8667 1344.08 105.6C1363.28 129.333 1371.82 159.467 1369.68 196H1209.28ZM1209.28 161.2H1321.28C1320.75 144.933 1315.15 131.867 1304.48 122C1293.82 112.133 1281.15 107.2 1266.48 107.2C1253.15 107.2 1240.75 111.6 1229.28 120.4C1217.82 128.933 1211.15 142.533 1209.28 161.2ZM1440.48 104.8C1453.28 81.6 1475.01 70 1505.68 70C1554.48 70 1578.88 98.2667 1578.88 154.8V290H1531.28V166.4C1531.28 159.733 1531.01 154 1530.48 149.2C1529.94 144.133 1528.88 138.933 1527.28 133.6C1525.68 128.267 1523.41 124 1520.48 120.8C1517.81 117.333 1513.81 114.533 1508.48 112.4C1503.41 110 1497.41 108.8 1490.48 108.8C1457.14 108.8 1440.48 131.067 1440.48 175.6V290H1392.88V74.8H1440.48V104.8Z" fill="url(#paint0_linear_1_2657)"/>
<defs>
<linearGradient id="paint0_linear_1_2657" x1="799.813" y1="0" x2="799.813" y2="290" gradientUnits="userSpaceOnUse">
<stop stop-color="white"/>
<stop offset="1" stop-color="#222222" stop-opacity="0"/>
</linearGradient>
</defs>
</svg>
