<svg width="261" height="117" viewBox="0 0 261 117" fill="none" xmlns="http://www.w3.org/2000/svg">
<path d="M0 6C0 2.68629 2.68629 0 6 0H255C258.314 0 261 2.68629 261 6V29C261 32.3137 258.314 35 255 35H6C2.68629 35 0 32.3137 0 29V6Z" fill="white" fill-opacity="0.03"/>
<path d="M14 16.5C14 14.567 15.567 13 17.5 13H53.5C55.433 13 57 14.567 57 16.5C57 18.433 55.433 20 53.5 20H17.5C15.567 20 14 18.433 14 16.5Z" fill="white" fill-opacity="0.03"/>
<path d="M63 16.5C63 14.567 64.567 13 66.5 13H102.5C104.433 13 106 14.567 106 16.5C106 18.433 104.433 20 102.5 20H66.5C64.567 20 63 18.433 63 16.5Z" fill="white" fill-opacity="0.03"/>
<path d="M112 16.5C112 14.567 113.567 13 115.5 13H151.5C153.433 13 155 14.567 155 16.5C155 18.433 153.433 20 151.5 20H115.5C113.567 20 112 18.433 112 16.5Z" fill="white" fill-opacity="0.03"/>
<path d="M18 56C18 52.6863 20.6863 50 24 50H237C240.314 50 243 52.6863 243 56V79C243 82.3137 240.314 85 237 85H24C20.6863 85 18 82.3137 18 79V56Z" fill="white" fill-opacity="0.03"/>
<path d="M32 67.5C32 65.567 33.567 64 35.5 64H71.5C73.433 64 75 65.567 75 67.5C75 69.433 73.433 71 71.5 71H35.5C33.567 71 32 69.433 32 67.5Z" fill="white" fill-opacity="0.03"/>
<path d="M81 67.5C81 65.567 82.567 64 84.5 64H120.5C122.433 64 124 65.567 124 67.5C124 69.433 122.433 71 120.5 71H84.5C82.567 71 81 69.433 81 67.5Z" fill="white" fill-opacity="0.03"/>
<path d="M185 67.5C185 65.567 186.567 64 188.5 64H224.5C226.433 64 228 65.567 228 67.5C228 69.433 226.433 71 224.5 71H188.5C186.567 71 185 69.433 185 67.5Z" fill="white" fill-opacity="0.03"/>
<path d="M43 106C43 102.686 45.6863 100 49 100H212C215.314 100 218 102.686 218 106V129C218 132.314 215.314 135 212 135H49C45.6863 135 43 132.314 43 129V106Z" fill="white" fill-opacity="0.03"/>
<path d="M57 117.5C57 115.567 58.567 114 60.5 114H96.5C98.433 114 100 115.567 100 117.5C100 119.433 98.433 121 96.5 121H60.5C58.567 121 57 119.433 57 117.5Z" fill="white" fill-opacity="0.03"/>
<path d="M106 117.5C106 115.567 107.567 114 109.5 114H145.5C147.433 114 149 115.567 149 117.5C149 119.433 147.433 121 145.5 121H109.5C107.567 121 106 119.433 106 117.5Z" fill="white" fill-opacity="0.03"/>
<path d="M49 100.5H212C215.038 100.5 217.5 102.962 217.5 106V129C217.5 132.038 215.038 134.5 212 134.5H49C45.9624 134.5 43.5 132.038 43.5 129V106C43.5 102.962 45.9624 100.5 49 100.5ZM99.5 117.5C99.5 119.157 98.1569 120.5 96.5 120.5H60.5C58.8431 120.5 57.5 119.157 57.5 117.5C57.5 115.843 58.8431 114.5 60.5 114.5H96.5C98.1569 114.5 99.5 115.843 99.5 117.5ZM148.5 117.5C148.5 119.157 147.157 120.5 145.5 120.5H109.5C107.843 120.5 106.5 119.157 106.5 117.5C106.5 115.843 107.843 114.5 109.5 114.5H145.5C147.157 114.5 148.5 115.843 148.5 117.5ZM24 50.5H237C240.038 50.5 242.5 52.9624 242.5 56V79C242.5 82.0376 240.038 84.5 237 84.5H24C20.9624 84.5 18.5 82.0376 18.5 79V56C18.5 52.9624 20.9624 50.5 24 50.5ZM74.5 67.5C74.5 69.1569 73.1569 70.5 71.5 70.5H35.5C33.8431 70.5 32.5 69.1569 32.5 67.5C32.5 65.8431 33.8431 64.5 35.5 64.5H71.5C73.1569 64.5 74.5 65.8431 74.5 67.5ZM123.5 67.5C123.5 69.1569 122.157 70.5 120.5 70.5H84.5C82.8431 70.5 81.5 69.1569 81.5 67.5C81.5 65.8431 82.8431 64.5 84.5 64.5H120.5C122.157 64.5 123.5 65.8431 123.5 67.5ZM227.5 67.5C227.5 69.1569 226.157 70.5 224.5 70.5H188.5C186.843 70.5 185.5 69.1569 185.5 67.5C185.5 65.8431 186.843 64.5 188.5 64.5H224.5C226.157 64.5 227.5 65.8431 227.5 67.5ZM6 0.5H255C258.038 0.5 260.5 2.96243 260.5 6V29C260.5 32.0376 258.038 34.5 255 34.5H6C2.96243 34.5 0.5 32.0376 0.5 29V6C0.5 2.96243 2.96243 0.5 6 0.5ZM56.5 16.5C56.5 18.1569 55.1569 19.5 53.5 19.5H17.5C15.8431 19.5 14.5 18.1569 14.5 16.5C14.5 14.8431 15.8431 13.5 17.5 13.5H53.5C55.1569 13.5 56.5 14.8431 56.5 16.5ZM105.5 16.5C105.5 18.1569 104.157 19.5 102.5 19.5H66.5C64.8431 19.5 63.5 18.1569 63.5 16.5C63.5 14.8431 64.8431 13.5 66.5 13.5H102.5C104.157 13.5 105.5 14.8431 105.5 16.5ZM154.5 16.5C154.5 18.1569 153.157 19.5 151.5 19.5H115.5C113.843 19.5 112.5 18.1569 112.5 16.5C112.5 14.8431 113.843 13.5 115.5 13.5H151.5C153.157 13.5 154.5 14.8431 154.5 16.5ZM100.5 117.5C100.5 115.291 98.7091 113.5 96.5 113.5H60.5C58.2909 113.5 56.5 115.291 56.5 117.5C56.5 119.709 58.2909 121.5 60.5 121.5H96.5C98.7091 121.5 100.5 119.709 100.5 117.5ZM149.5 117.5C149.5 115.291 147.709 113.5 145.5 113.5H109.5C107.291 113.5 105.5 115.291 105.5 117.5C105.5 119.709 107.291 121.5 109.5 121.5H145.5C147.709 121.5 149.5 119.709 149.5 117.5ZM75.5 67.5C75.5 65.2909 73.7091 63.5 71.5 63.5H35.5C33.2909 63.5 31.5 65.2909 31.5 67.5C31.5 69.7091 33.2909 71.5 35.5 71.5H71.5C73.7091 71.5 75.5 69.7091 75.5 67.5ZM124.5 67.5C124.5 65.2909 122.709 63.5 120.5 63.5H84.5C82.2909 63.5 80.5 65.2909 80.5 67.5C80.5 69.7091 82.2909 71.5 84.5 71.5H120.5C122.709 71.5 124.5 69.7091 124.5 67.5ZM228.5 67.5C228.5 65.2909 226.709 63.5 224.5 63.5H188.5C186.291 63.5 184.5 65.2909 184.5 67.5C184.5 69.7091 186.291 71.5 188.5 71.5H224.5C226.709 71.5 228.5 69.7091 228.5 67.5ZM57.5 16.5C57.5 14.2909 55.7091 12.5 53.5 12.5H17.5C15.2909 12.5 13.5 14.2909 13.5 16.5C13.5 18.7091 15.2909 20.5 17.5 20.5H53.5C55.7091 20.5 57.5 18.7091 57.5 16.5ZM106.5 16.5C106.5 14.2909 104.709 12.5 102.5 12.5H66.5C64.2909 12.5 62.5 14.2909 62.5 16.5C62.5 18.7091 64.2909 20.5 66.5 20.5H102.5C104.709 20.5 106.5 18.7091 106.5 16.5ZM155.5 16.5C155.5 14.2909 153.709 12.5 151.5 12.5H115.5C113.291 12.5 111.5 14.2909 111.5 16.5C111.5 18.7091 113.291 20.5 115.5 20.5H151.5C153.709 20.5 155.5 18.7091 155.5 16.5Z" stroke="white" stroke-opacity="0.07"/>
</svg>
