<svg width="20" height="20" viewBox="0 0 20 20" fill="none" xmlns="http://www.w3.org/2000/svg">
<path d="M16.6673 16.6667V10.8333M10.0007 16.6667V8.33333M3.33398 16.6667L3.33398 13.3333M11.1729 4.18959L15.4799 5.80472M8.99963 4.50077L4.33417 7.99986M17.5512 5.36612C18.0394 5.85427 18.0394 6.64573 17.5512 7.13388C17.063 7.62204 16.2716 7.62204 15.7834 7.13388C15.2953 6.64573 15.2953 5.85427 15.7834 5.36612C16.2716 4.87796 17.063 4.87796 17.5512 5.36612ZM4.21787 7.86612C4.70602 8.35427 4.70602 9.14573 4.21787 9.63388C3.72971 10.122 2.93826 10.122 2.4501 9.63388C1.96195 9.14573 1.96195 8.35427 2.4501 7.86612C2.93826 7.37796 3.72971 7.37796 4.21787 7.86612ZM10.8845 2.86612C11.3727 3.35427 11.3727 4.14573 10.8845 4.63388C10.3964 5.12204 9.60492 5.12204 9.11677 4.63388C8.62861 4.14573 8.62861 3.35427 9.11677 2.86612C9.60492 2.37796 10.3964 2.37796 10.8845 2.86612Z" stroke="#14E893" stroke-width="1.5" stroke-linecap="round" stroke-linejoin="round"/>
</svg>
