<svg width="20" height="20" viewBox="0 0 20 20" fill="none" xmlns="http://www.w3.org/2000/svg">
<g clip-path="url(#clip0_19_29486)">
<path d="M11.6673 14.7156V16.6667C11.6673 17.5872 10.9211 18.3334 10.0007 18.3334C9.08018 18.3334 8.33398 17.5872 8.33398 16.6667V14.7156M10.0007 1.66675V2.50008M17.5007 10.0001H18.334M15.4173 4.58341L15.9174 4.08333M4.58398 4.58341L4.08378 4.08333M1.66732 10.0001H2.50065M5.00065 10.0001C5.00065 12.7615 7.23923 15.0001 10.0007 15.0001C12.7621 15.0001 15.0007 12.7615 15.0007 10.0001C15.0007 7.23866 12.7621 5.00008 10.0007 5.00008C7.23923 5.00008 5.00065 7.23866 5.00065 10.0001Z" stroke="#14E893" stroke-width="1.5" stroke-linecap="round" stroke-linejoin="round"/>
</g>
<defs>
<clipPath id="clip0_19_29486">
<rect width="20" height="20" fill="white" transform="matrix(-1 0 0 1 20 0)"/>
</clipPath>
</defs>
</svg>
