<svg width="22" height="12" viewBox="0 0 22 12" fill="none" xmlns="http://www.w3.org/2000/svg">
<path d="M1.70711 0.292893C1.31658 -0.0976311 0.683418 -0.0976311 0.292893 0.292893C-0.0976311 0.683417 -0.0976311 1.31658 0.292893 1.70711L5.18407 6.59829C5.36251 6.77677 5.53629 6.9506 5.69551 7.08576C5.87036 7.23419 6.09225 7.39376 6.38197 7.4879C6.78365 7.61842 7.21635 7.61842 7.61803 7.4879C7.90775 7.39376 8.12964 7.23419 8.30449 7.08576C8.4637 6.9506 8.63748 6.77678 8.81592 6.5983L11.5757 3.83848C11.7854 3.6288 11.9007 3.51462 11.9899 3.43892L12 3.4304L12.0101 3.43892C12.0993 3.51462 12.2146 3.6288 12.4243 3.83848L18.5858 10H14C13.4477 10 13 10.4477 13 11C13 11.5523 13.4477 12 14 12H21C21.5523 12 22 11.5523 22 11V4C22 3.44772 21.5523 3 21 3C20.4477 3 20 3.44772 20 4V8.58579L13.8159 2.40171C13.6375 2.22323 13.4637 2.0494 13.3045 1.91424C13.1296 1.76581 12.9078 1.60624 12.618 1.5121C12.2163 1.38158 11.7837 1.38158 11.382 1.5121C11.0922 1.60624 10.8704 1.76581 10.6955 1.91424C10.5363 2.04939 10.3625 2.2232 10.1841 2.40166L7.42426 5.16152C7.21459 5.3712 7.09931 5.48538 7.01013 5.56108L7 5.5696L6.98987 5.56108C6.90069 5.48538 6.78541 5.3712 6.57574 5.16152L1.70711 0.292893Z" fill="#E81418"/>
</svg>
