<svg width="22" height="12" viewBox="0 0 22 12" fill="none" xmlns="http://www.w3.org/2000/svg">
<path d="M1.70711 11.7071C1.31658 12.0976 0.683418 12.0976 0.292893 11.7071C-0.0976311 11.3166 -0.0976311 10.6834 0.292893 10.2929L5.18407 5.40171C5.36251 5.22323 5.53629 5.0494 5.69551 4.91424C5.87036 4.76581 6.09225 4.60624 6.38197 4.5121C6.78365 4.38158 7.21635 4.38158 7.61803 4.5121C7.90775 4.60624 8.12964 4.76581 8.30449 4.91424C8.4637 5.0494 8.63748 5.22322 8.81592 5.4017L11.5757 8.16152C11.7854 8.3712 11.9007 8.48538 11.9899 8.56108L12 8.5696L12.0101 8.56108C12.0993 8.48538 12.2146 8.3712 12.4243 8.16152L18.5858 2H14C13.4477 2 13 1.55228 13 1C13 0.447716 13.4477 0 14 0H21C21.5523 0 22 0.447716 22 1V8C22 8.55228 21.5523 9 21 9C20.4477 9 20 8.55228 20 8V3.41421L13.8159 9.59829C13.6375 9.77677 13.4637 9.9506 13.3045 10.0858C13.1296 10.2342 12.9078 10.3938 12.618 10.4879C12.2163 10.6184 11.7837 10.6184 11.382 10.4879C11.0922 10.3938 10.8704 10.2342 10.6955 10.0858C10.5363 9.95061 10.3625 9.7768 10.1841 9.59834L7.42426 6.83848C7.21459 6.6288 7.09931 6.51462 7.01013 6.43892L7 6.4304L6.98987 6.43892C6.90069 6.51462 6.78541 6.6288 6.57574 6.83848L1.70711 11.7071Z" fill="#14E893"/>
</svg>
