<svg width="21" height="24" viewBox="0 0 21 24" fill="none" xmlns="http://www.w3.org/2000/svg">
<g clip-path="url(#clip0_55_3703)">
<path d="M7.94714 0.149253C6.44589 0.481371 5.06247 1.10679 4.01509 1.92199C3.50449 2.32311 2.75387 3.09087 2.34365 3.63865C2.13853 3.91469 1.96834 4.15192 1.96834 4.16486C1.96834 4.18211 1.9116 4.27269 1.84178 4.37189C1.68031 4.60481 1.28317 5.38981 1.0737 5.89014C0.925318 6.24383 0.838036 6.49831 0.576191 7.3437C0.462724 7.7017 0.24452 8.78431 0.174694 9.29759C0.14851 9.50893 0.104869 9.81086 0.0830484 9.96614C0.0612279 10.1214 0.0306793 10.9366 0.017587 11.782C0.000130664 13.2399 0.00449475 13.3563 0.109233 14.1974C0.17033 14.6805 0.261976 15.2886 0.309981 15.5518C0.401627 16.0391 0.698385 17.1735 0.82058 17.4884C1.51011 19.2913 2.14726 20.3265 3.23392 21.4005C4.02382 22.1855 4.65661 22.6297 5.65599 23.1042C6.34552 23.4363 7.21397 23.7253 7.9515 23.8763L8.49701 23.9884L10.8973 23.9711C13.2888 23.9539 13.2931 23.9539 13.7296 23.8461C15.4708 23.4104 16.7888 22.6772 18.0064 21.4652C18.7395 20.7362 19.2458 19.9771 19.5905 19.0929C19.9047 18.2906 19.9877 17.8852 20.0226 16.9967C20.1273 14.3786 18.8792 12.3341 16.4746 11.1738C16.2782 11.0789 16.108 10.9711 16.0949 10.9366C16.0774 10.9021 16.0556 10.7253 16.0425 10.5398C15.9989 10.0093 15.8287 9.25014 15.6279 8.70668C15.1959 7.53348 14.3318 6.55438 13.315 6.07561C12.6385 5.76075 12.141 5.63135 11.2988 5.56665C10.5045 5.50196 9.79751 5.56665 8.99452 5.77369C8.67594 5.85564 8.04315 6.15756 7.66784 6.40342C7.1136 6.76573 6.28878 7.60681 6.28878 7.8009C6.28878 7.83109 7.70711 8.81882 7.93405 8.94822C7.96023 8.96115 8.14352 8.81451 8.37045 8.59453C8.85487 8.12008 9.13417 7.9648 9.88916 7.76208C10.2296 7.66719 11.338 7.68013 11.7221 7.77933C12.8786 8.08126 13.5201 8.77137 13.8168 10.0395C13.8648 10.2379 13.8648 10.2767 13.8081 10.2983C13.7732 10.3112 13.5288 10.2939 13.2582 10.2637C12.6429 10.1861 10.7271 10.1861 10.2383 10.2594C8.75886 10.488 7.65038 11.0315 6.86921 11.92C5.83055 13.0975 5.6909 14.9738 6.53754 16.3583C6.76883 16.7379 7.30998 17.3029 7.65911 17.5315C8.6803 18.2001 9.91971 18.4934 11.2158 18.3769C13.6292 18.1569 15.1959 16.7508 15.8025 14.2578C15.8549 14.0464 15.9072 13.779 15.9203 13.6669C15.9596 13.3434 16.0163 13.3304 16.3567 13.5806C17.3343 14.2966 17.8536 15.2757 17.9234 16.5222C18.0064 17.9499 17.3081 19.3517 15.9858 20.4171C14.9777 21.2323 13.9958 21.6463 12.4814 21.9008C11.8181 22.0129 9.69714 22.0129 9.01634 21.9008C7.17033 21.5946 5.76509 20.926 4.68716 19.8391C4.07183 19.2094 3.70088 18.6918 3.29065 17.8809C2.92843 17.1692 2.56622 16.0391 2.36547 15.0126C2.16908 13.9904 2.0818 12.8172 2.11235 11.6267C2.15163 10.1947 2.26509 9.36228 2.58367 8.08126C2.89352 6.82611 3.4914 5.58822 4.18529 4.74283C4.853 3.92763 5.57307 3.35829 6.52881 2.89677C7.12669 2.60779 7.32744 2.53015 7.81622 2.40075C7.94714 2.36625 8.16534 2.31017 8.29627 2.27567C8.66721 2.17647 9.38729 2.07726 10.0724 2.02982C11.0587 1.96512 12.3985 2.07726 13.2059 2.29292C13.3019 2.31449 13.4503 2.35331 13.5332 2.37056C13.8867 2.4482 14.5369 2.69405 15.0344 2.93559C16.1822 3.50062 17.1161 4.32445 17.8318 5.40706C18.0806 5.78663 18.5519 6.68809 18.5519 6.78298C18.5519 6.81749 18.5693 6.86062 18.5912 6.88218C18.6392 6.93826 18.8312 7.45153 18.9228 7.77502C18.9621 7.91304 19.0101 8.03381 19.0319 8.04675C19.0668 8.06832 19.7869 7.89148 20.603 7.66719L20.9739 7.56367L20.987 7.4084C21.0001 7.25312 20.747 6.43361 20.5506 6.0066C19.6778 4.07428 18.7614 2.88815 17.2863 1.78396C16.3436 1.08091 14.934 0.468431 13.555 0.162193L12.944 0.0284833L10.762 0.0198569L8.57993 0.0112305L7.94714 0.149253ZM12.8349 12.3815C13.5201 12.4678 13.8168 12.5239 13.8648 12.5843C13.9521 12.6835 13.8256 13.5504 13.6466 14.1111C13.2844 15.2283 12.6691 15.8666 11.6784 16.1383C11.1766 16.2764 10.2121 16.2764 9.71459 16.1383C8.61048 15.8364 8.00387 15.0687 8.13043 14.1413C8.21335 13.5375 8.59302 13.076 9.26509 12.7525C9.69277 12.5454 9.88043 12.4937 10.4783 12.4031C10.9409 12.3341 12.3374 12.3212 12.8349 12.3815Z" fill="white"/>
</g>
<defs>
<clipPath id="clip0_55_3703">
<rect width="21" height="24" fill="white"/>
</clipPath>
</defs>
</svg>
